<?xml version="1.0" encoding="utf-8"?>
<!-- Generator: Adobe Illustrator 19.2.1, SVG Export Plug-In . SVG Version: 6.00 Build 0)  -->
<svg version="1.1" id="Layer_1" xmlns="http://www.w3.org/2000/svg" xmlns:xlink="http://www.w3.org/1999/xlink" x="0px" y="0px"
	 viewBox="0 0 105 50" style="enable-background:new 0 0 105 50;" xml:space="preserve">
<style type="text/css">
	.st0{fill:#3298CB;}
	.st1{fill:#F58538;}
</style>
<g>
	<g>
		<polygon class="st0" points="30,27.4 19.6,27.4 29.6,17.4 41,28.9 52.5,17.4 68,32.9 58.3,32.9 52.4,27 41,38.5 		"/>
		<polygon class="st0" points="12.3,44.4 2.5,44.4 12.7,34.3 22.4,34.3 		"/>
		<polygon class="st0" points="74.9,39.7 79.4,44.4 69.7,44.4 65.3,39.7 		"/>
	</g>
	<g>
		<polygon class="st1" points="39.5,5.6 16.8,28.5 29.2,28.5 33.6,32.9 2.5,32.9 30,5.6 		"/>
		<polygon class="st1" points="42.6,38.5 85.1,38.5 80.8,34.3 58,34.3 52.5,28.6 		"/>
		<polygon class="st1" points="102.5,11.3 69.7,11.3 59,22.1 64.1,27.2 75.2,27.2 79.8,22.6 68.7,22.6 75.5,15.8 98.1,15.8 		"/>
	</g>
</g>
</svg>
